# xmcd
#
# Track frame offsets:
# 150
# 15766
# 33409
# 51431
# 66417
# 81075
# 97242
# 111027
# 127728
# 146273
# 158980
# 177850
# 194359
# 212321
# 224488
# 249510
# 262759
# 275932
# 297948
# 315145
#
# Disc length: 4441 seconds
#
#
# Revision: 3
# Processed by: cddbd v1.5.1PL2 Copyright (c) Steve Scherf et al.
# Submitted via: FreeRIP 2.944 
#
DISCID=1b115714
DTITLE=Die Campbells - Rooi Rok Bokkie
DYEAR=1999
DGENRE=National Folk
TTITLE0=Day O
TTITLE1=Rooi Rok Bokkie
TTITLE2=Jaloers Bookie
TTITLE3=Country Roads
TTITLE4=Meisie Sonder Sokkies
TTITLE5=Cotton Fields
TTITLE6=Dizzy
TTITLE7=Lovesong (feat. Cheree)
TTITLE8=Cherio Party Medley
TTITLE9=Ou Ryperd
TTITLE10=Queen Of My Heart
TTITLE11=Hollies Medley
TTITLE12=Dem Bones
TTITLE13=Singing the Blues
TTITLE14=Euro Medley
TTITLE15=Darlin'
TTITLE16=Long Legged Woman Dressed In Black
TTITLE17=Bellamy Medley
TTITLE18=Pale Toe
TTITLE19=Rooi Rok Bookie (Kort Rokkie Mix)
EXTD=
EXTT0=
EXTT1=
EXTT2=
EXTT3=
EXTT4=
EXTT5=
EXTT6=
EXTT7=
EXTT8=
EXTT9=
EXTT10=
EXTT11=
EXTT12=
EXTT13=
EXTT14=
EXTT15=
EXTT16=
EXTT17=
EXTT18=
EXTT19=
PLAYORDER=
